Coordinates
version=1
nRows=29
nColumns=24
inDegrees=yes

Units are S.I. units (second, meters, Newtons, ...)
Angles are in degrees.

endheader
time	pelvis_tilt	pelvis_list	pelvis_rotation	pelvis_tx	pelvis_ty	pelvis_tz	hip_flexion_r	hip_adduction_r	hip_rotation_r	knee_angle_r	ankle_angle_r	subtalar_angle_r	mtp_angle_r	hip_flexion_l	hip_adduction_l	hip_rotation_l	knee_angle_l	ankle_angle_l	subtalar_angle_l	mtp_angle_l	lumbar_extension	lumbar_bending	lumbar_rotation
      3.20000000	     -1.08461987	     -2.48401519	     -9.29314451	     -0.78424464	      0.90554509	      0.23600946	    -12.08898492	      5.85041600	     11.26090916	    -24.38424244	     22.97348304	     -7.23903966	      0.00000000	     30.32712874	     -2.73067962	     -5.95173340	    -11.03020174	      9.62662911	    -12.06541822	      0.00000000	    -11.81201155	     -1.01104416	     -1.43216036
      3.20500000	     -1.11954605	     -2.28311482	     -9.12298366	     -0.77533216	      0.90455092	      0.23556210	    -12.14233821	      5.50233091	     10.58721666	    -25.15569145	     22.55107629	     -6.44591774	      0.00000000	     30.59199173	     -2.42267259	     -6.04681177	    -12.21357627	      9.18728156	    -12.42992265	      0.00000000	    -11.62014173	     -1.27385292	     -1.73599710
      3.21000000	     -1.16351357	     -2.06327973	     -8.94895849	     -0.76649808	      0.90364499	      0.23503316	    -12.09367988	      5.12185587	      9.82948955	    -26.06866559	     22.08312702	     -5.51587801	      0.00000000	     30.83795800	     -2.08352196	     -6.06297163	    -13.34587599	      8.57619999	    -12.86192328	      0.00000000	    -11.43880882	     -1.55351005	     -2.03163311
      3.21500000	     -1.21629071	     -1.76417716	     -8.73036155	     -0.75758530	      0.90282892	      0.23448535	    -11.98494739	      4.67034419	      9.00214943	    -27.04097664	     21.50342027	     -4.65562689	      0.00000000	     31.08737173	     -1.65527686	     -6.11115558	    -14.46041332	      7.91249524	    -13.18537326	      0.00000000	    -11.22675949	     -1.93088283	     -2.40667810
      3.22000000	     -1.29106539	     -1.40870988	     -8.49707812	     -0.74870489	      0.90211131	      0.23390408	    -11.77371328	      4.15749570	      8.11135917	    -28.12044142	     20.83388907	     -3.77656559	      0.00000000	     31.34672172	     -1.16665762	     -6.13661151	    -15.53314624	      7.16688795	    -13.48581686	      0.00000000	    -10.99539810	     -2.37367880	     -2.80034560
      3.22500000	     -1.38669760	     -0.99856270	     -8.25063287	     -0.73985431	      0.90149955	      0.23329845	    -11.46036556	      3.58433294	      7.17492553	    -29.30962846	     20.05351851	     -2.90502112	      0.00000000	     31.61958178	     -0.61898230	     -6.13186194	    -16.57733852	      6.38780483	    -13.75846088	      0.00000000	    -10.74178427	     -2.88121286	     -3.21809783
      3.23000000	     -1.50001559	     -0.54343450	     -7.99092588	     -0.73104777	      0.90098983	      0.23267735	    -11.04968622	      2.95986222	      6.20816690	    -30.60837042	     19.15767736	     -2.06023601	      0.00000000	     31.91045190	     -0.02273472	     -6.11107166	    -17.61099186	      5.62886564	    -13.98900207	      0.00000000	    -10.47553684	     -3.44555372	     -3.65197699
      3.23500000	     -1.63140373	     -0.05243605	     -7.73011146	     -0.72227327	      0.90057672	      0.23204811	    -10.54255313	      2.28767868	      5.23195632	    -32.01507338	     18.13160953	     -1.25459678	      0.00000000	     32.21572042	      0.61235190	     -6.05584826	    -18.64002828	      4.92177076	    -14.21015875	      0.00000000	    -10.19336653	     -4.05331740	     -4.08866734
      3.24000000	     -1.77225261	      0.46081954	     -7.47019782	     -0.71352804	      0.90025530	      0.23142453	     -9.95474978	      1.58240108	      4.27090662	    -33.52038601	     16.96676706	     -0.51865909	      0.00000000	     32.52890610	      1.27151369	     -5.97794351	    -19.67746384	      4.30763288	    -14.41500132	      0.00000000	     -9.90650907	     -4.69193817	     -4.51935677
      3.24500000	     -1.91863514	      0.98303633	     -7.22024434	     -0.70479773	      0.90001247	      0.23081406	     -9.29531300	      0.85460233	      3.34402389	    -35.11532819	     15.65761571	      0.12624440	      0.00000000	     32.84086478	      1.94042676	     -5.87759176	    -20.72225221	      3.81160343	    -14.62337657	      0.00000000	     -9.61718661	     -5.34422984	     -4.93385635
      3.25000000	     -2.04133980	      1.51245819	     -6.98438559	     -0.69608587	      0.89984482	      0.23026378	     -8.60190878	      0.11436756	      2.48478932	    -36.78841647	     14.22080470	      0.61047800	      0.00000000	     33.12300386	      2.61042195	     -5.78811353	    -21.78325396	      3.50051917	    -14.78655989	      0.00000000	     -9.36151793	     -6.02066893	     -5.34883907
      3.25500000	     -2.19270782	      2.01799682	     -6.75926062	     -0.68737598	      0.89973653	      0.22965277	     -7.82133331	     -0.62634691	      1.65080573	    -38.52373011	     12.62730677	      1.04375149	      0.00000000	     33.40835646	      3.26665744	     -5.65764351	    -22.81367314	      3.25858509	    -15.02744669	      0.00000000	     -9.07276036	     -6.65197062	     -5.69410742
      3.26000000	     -2.30081469	      2.50729605	     -6.55691061	     -0.67869749	      0.89970894	      0.22912302	     -7.03555235	     -1.35116232	      0.90989415	    -40.31109563	     10.91437961	      1.27262225	      0.00000000	     33.62848093	      3.89743866	     -5.55649197	    -23.83514961	      3.22130662	    -15.21414415	      0.00000000	     -8.84093608	     -7.27918696	     -6.02601331
      3.26500000	     -2.40587517	      2.98362957	     -6.36553608	     -0.67003421	      0.89972325	      0.22856397	     -6.20674988	     -2.07107556	      0.23071010	    -42.13055257	      9.09889598	      1.33374129	      0.00000000	     33.81191384	      4.51926452	     -5.46520567	    -24.81299768	      3.33253808	    -15.39316392	      0.00000000	     -8.61635739	     -7.88357844	     -6.33668728
      3.27000000	     -2.39412794	      3.44221213	     -6.21275710	     -0.66136181	      0.89997862	      0.22811927	     -5.47635577	     -2.76873913	     -0.33371697	    -43.92736567	      7.13120999	      1.11226583	      0.00000000	     33.81570928	      5.11201222	     -5.43496982	    -25.71879163	      3.63707615	    -15.47477923	      0.00000000	     -8.52701426	     -8.48939526	     -6.61446419
      3.27500000	     -2.56493137	      3.86680589	     -6.01858641	     -0.65282322	      0.89993856	      0.22746853	     -4.47713938	     -3.44164272	     -0.93070398	    -45.80625299	      5.20364668	      0.86227580	      0.00000000	     34.00481972	      5.69181184	     -5.34643810	    -26.60358501	      3.98422332	    -15.62415821	      0.00000000	     -8.24366592	     -9.00247271	     -6.89379481
      3.28000000	     -2.53024016	      4.30186608	     -5.87981655	     -0.64422584	      0.90029402	      0.22695632	     -3.68754943	     -4.12515012	     -1.40679476	    -47.60877727	      3.15492922	      0.29322292	      0.00000000	     33.88695724	      6.27346534	     -5.33781597	    -27.35374793	      4.51286860	    -15.66325260	      0.00000000	     -8.18831617	     -9.56151625	     -7.13872988
      3.28500000	     -2.54224733	      4.71785022	     -5.72387940	     -0.63570895	      0.90060625	      0.22633274	     -2.80655886	     -4.78920636	     -1.86745458	    -49.40771782	      1.12164399	     -0.45035646	      0.00000000	     33.77926719	      6.84776586	     -5.33036474	    -28.03493972	      5.11322714	    -15.67887200	      0.00000000	     -8.08998164	    -10.06603122	     -7.40482054
      3.29000000	     -2.69634298	      5.02596766	     -5.53593440	     -0.62739796	      0.90076666	      0.22570210	     -1.73161858	     -5.29903849	     -2.28365831	    -51.19423699	     -0.93034186	     -1.44853430	      0.00000000	     33.80689986	      7.30249019	     -5.31880986	    -28.70410344	      5.79064758	    -15.59977399	      0.00000000	     -7.85876282	    -10.42988710	     -7.62541110
      3.29500000	     -2.66466698	      5.45698182	     -5.37944936	     -0.61895675	      0.90123703	      0.22503477	     -0.84311245	     -5.97566805	     -2.67231754	    -52.92023738	     -2.80314560	     -2.52531313	      0.00000000	     33.53273129	      7.90148288	     -5.34659607	    -29.17061188	      6.49312789	    -15.56357785	      0.00000000	     -7.81574916	    -10.94184949	     -7.90514332
      3.30000000	     -2.73723296	      5.76578220	     -5.19879698	     -0.61077224	      0.90165147	      0.22434484	      0.19027963	     -6.46899231	     -2.97895242	    -54.60147377	     -4.64983826	     -3.88006032	      0.00000000	     33.36153590	      8.36853364	     -5.35494008	    -29.63903048	      7.21231399	    -15.43075092	      0.00000000	     -7.69727927	    -11.28873847	     -8.14413393
      3.30500000	     -2.75679884	      6.13213388	     -5.01796357	     -0.60255613	      0.90216419	      0.22360514	      1.18124315	     -7.04073842	     -3.28426523	    -56.23905788	     -6.19125025	     -5.27179236	      0.00000000	     33.06439626	      8.90579892	     -5.38638481	    -29.97013766	      7.93627413	    -15.32525707	      0.00000000	     -7.62832702	    -11.69617328	     -8.41911279
      3.31000000	     -2.81170889	      6.45533721	     -4.83634332	     -0.59440881	      0.90270239	      0.22285995	      2.22124484	     -7.53548630	     -3.51708410	    -57.81456580	     -7.47896656	     -6.77965373	      0.00000000	     32.75223446	      9.40421597	     -5.35729564	    -30.22417957	      8.69677585	    -15.17760793	      0.00000000	     -7.51987474	    -12.03903377	     -8.66907157
      3.31500000	     -2.84412406	      6.78654560	     -4.64628090	     -0.58634008	      0.90333253	      0.22207607	      3.25207538	     -8.03281400	     -3.71982508	    -59.34026568	     -8.41809041	     -8.29915755	      0.00000000	     32.37868396	      9.91659547	     -5.34874453	    -30.39872581	      9.40041581	    -15.04672483	      0.00000000	     -7.45256271	    -12.38682886	     -8.94193320
      3.32000000	     -2.85166188	      7.11294024	     -4.45368273	     -0.57836033	      0.90405891	      0.22127157	      4.26858629	     -8.51448857	     -3.88378355	    -60.81101721	     -8.97945724	     -9.80881016	      0.00000000	     31.94496082	     10.42952947	     -5.33946531	    -30.50407172	     10.04146493	    -14.93117162	      0.00000000	     -7.43117866	    -12.71695133	     -9.23361905
      3.32500000	     -2.84409550	      7.42628932	     -4.25384004	     -0.57031338	      0.90487542	      0.22047192	      5.25691619	     -8.96981303	     -4.01058498	    -62.19985354	     -9.17080373	    -11.22094297	      0.00000000	     31.43721228	     10.94608858	     -5.26543995	    -30.52893940	     10.71160233	    -14.81934025	      0.00000000	     -7.40795999	    -13.03826530	     -9.51360895
      3.33000000	     -2.88764961	      7.64555613	     -4.09291543	     -0.56250731	      0.90573680	      0.21976971	      6.33084313	     -9.26865048	     -4.03378034	    -63.51453733	     -9.11812202	    -12.73892258	      0.00000000	     30.97330280	     11.34053727	     -5.18241294	    -30.53099549	     11.28019946	    -14.72509913	      0.00000000	     -7.35804527	    -13.23524722	     -9.75848784
      3.33500000	     -2.87985300	      7.86658318	     -3.91846063	     -0.55460814	      0.90672745	      0.21904535	      7.33387285	     -9.58030960	     -4.05989963	    -64.73852560	     -8.71299213	    -14.01388800	      0.00000000	     30.39864640	     11.76107538	     -5.03573916	    -30.45321793	     11.88493474	    -14.63112796	      0.00000000	     -7.34876857	    -13.44437102	    -10.00246270
      3.34000000	     -2.88805844	      8.02684046	     -3.77686020	     -0.54681444	      0.90780048	      0.21842947	      8.36683296	     -9.78553835	     -4.01224981	    -65.86609125	     -8.10996855	    -15.24845836	      0.00000000	     29.82222873	     12.10263202	     -4.87131739	    -30.34614673	     12.40243104	    -14.57208166	      0.00000000	     -7.32907916	    -13.58260128	    -10.21825711
